<svg xmlns="http://www.w3.org/2000/svg" viewBox="0 0 1200 760" role="img" aria-labelledby="title desc">
  <title id="title">Technical documentation workflow preview</title>
  <desc id="desc">A documentation workspace showing report sections, notes, and review status.</desc>
  <defs>
    <linearGradient id="bg" x1="0" x2="1" y1="0" y2="1">
      <stop offset="0" stop-color="#1e3a8a"/>
      <stop offset="0.55" stop-color="#0f172a"/>
      <stop offset="1" stop-color="#047857"/>
    </linearGradient>
  </defs>
  <rect width="1200" height="760" fill="url(#bg)"/>
  <circle cx="1040" cy="610" r="260" fill="#34d399" opacity="0.18"/>
  <circle cx="150" cy="110" r="240" fill="#93c5fd" opacity="0.18"/>
  <rect x="110" y="82" width="980" height="596" rx="32" fill="#f8fafc"/>
  <rect x="154" y="132" width="254" height="496" rx="24" fill="#e0f2fe"/>
  <text x="188" y="190" fill="#0f172a" font-family="Inter, Arial, sans-serif" font-size="30" font-weight="900">Sections</text>
  <rect x="188" y="238" width="170" height="18" rx="9" fill="#2563eb"/>
  <rect x="188" y="286" width="138" height="18" rx="9" fill="#0f766e"/>
  <rect x="188" y="334" width="184" height="18" rx="9" fill="#64748b"/>
  <rect x="188" y="382" width="150" height="18" rx="9" fill="#64748b"/>
  <rect x="188" y="430" width="190" height="18" rx="9" fill="#64748b"/>
  <rect x="452" y="132" width="584" height="496" rx="24" fill="#ffffff"/>
  <text x="500" y="196" fill="#0f172a" font-family="Inter, Arial, sans-serif" font-size="34" font-weight="900">Project Report Draft</text>
  <rect x="500" y="248" width="410" height="18" rx="9" fill="#94a3b8"/>
  <rect x="500" y="286" width="468" height="18" rx="9" fill="#cbd5e1"/>
  <rect x="500" y="324" width="330" height="18" rx="9" fill="#cbd5e1"/>
  <rect x="500" y="390" width="160" height="48" rx="24" fill="#dcfce7"/>
  <text x="530" y="422" fill="#047857" font-family="Inter, Arial, sans-serif" font-size="20" font-weight="900">Reviewed</text>
  <rect x="698" y="390" width="186" height="48" rx="24" fill="#dbeafe"/>
  <text x="728" y="422" fill="#1d4ed8" font-family="Inter, Arial, sans-serif" font-size="20" font-weight="900">Ready to share</text>
  <rect x="500" y="492" width="462" height="16" rx="8" fill="#e2e8f0"/>
  <rect x="500" y="528" width="390" height="16" rx="8" fill="#e2e8f0"/>
  <rect x="500" y="564" width="430" height="16" rx="8" fill="#e2e8f0"/>
</svg>
